<svg width="130" height="29" viewBox="0 0 130 29" fill="none" xmlns="http://www.w3.org/2000/svg">
<path d="M29.5449 4.42773C29.123 4.47461 28.7363 4.55078 28.3848 4.65625C28.0332 4.76172 27.6992 4.9082 27.3828 5.0957C26.8789 5.37695 26.4277 5.74023 26.0293 6.18555C25.6426 6.61914 25.2617 7.10547 24.8867 7.64453C24.125 8.75781 23.3223 9.9707 22.4785 11.2832C21.6465 12.584 20.7383 14.0195 19.7539 15.5898C19.1094 16.5859 18.7109 17.3535 18.5586 17.8926C18.418 18.4199 18.3477 19.3398 18.3477 20.6523V24.1855C18.3477 24.6074 18.4238 24.9766 18.5762 25.293C18.7402 25.6094 19.0449 25.8672 19.4902 26.0664C19.6895 26.1484 20.1113 26.2598 20.7559 26.4004C21.4004 26.5293 21.875 26.6055 22.1797 26.6289V28H8.27539V26.6289C8.60352 26.6055 9.07227 26.5586 9.68164 26.4883C10.3027 26.418 10.7363 26.3359 10.9824 26.2422C11.416 26.0547 11.709 25.8086 11.8613 25.5039C12.0254 25.1875 12.1074 24.8066 12.1074 24.3613V19.9668C12.1074 19.5801 12.1016 19.2402 12.0898 18.9473C12.0781 18.6543 12.0371 18.4082 11.9668 18.209C11.8848 17.9863 11.7441 17.7051 11.5449 17.3652C11.3457 17.0137 11.0879 16.5625 10.7715 16.0117C9.86914 14.4297 8.99609 12.9297 8.15234 11.5117C7.30859 10.0938 6.50586 8.76367 5.74414 7.52148C5.3457 6.87695 4.94141 6.36133 4.53125 5.97461C4.13281 5.57617 3.72266 5.25391 3.30078 5.00781C2.98438 4.83203 2.59766 4.69727 2.14062 4.60352C1.69531 4.50977 1.29102 4.45117 0.927734 4.42773V3.05664H15.2188V4.42773C13.9062 4.46289 13.0215 4.55664 12.5645 4.70898C12.1074 4.84961 11.8789 5.04883 11.8789 5.30664C11.8789 5.43555 11.9609 5.69336 12.125 6.08008C12.3008 6.4668 12.6055 7.06445 13.0391 7.87305C13.4375 8.63477 14.0176 9.68359 14.7793 11.0195C15.5527 12.3555 16.4785 13.9199 17.5566 15.7129C19.7832 12.1855 21.3125 9.72461 22.1445 8.33008C22.9766 6.92383 23.3926 6.0625 23.3926 5.74609C23.3926 5.34766 23.1465 5.04297 22.6543 4.83203C22.1738 4.62109 21.3887 4.48633 20.2988 4.42773V3.05664H29.5449V4.42773ZM52.3262 27.6309L43.9414 28.1406L43.6777 27.8945V25.5918H43.5723C43.1738 25.9551 42.7812 26.3125 42.3945 26.6641C42.0195 27.0039 41.5684 27.3145 41.041 27.5957C40.4434 27.9121 39.875 28.1465 39.3359 28.2988C38.8086 28.4512 38.0352 28.5273 37.0156 28.5273C35.2461 28.5273 33.8867 27.9941 32.9375 26.9277C32 25.8613 31.5312 24.3555 31.5312 22.4102V14.5C31.5312 14.043 31.4434 13.6738 31.2676 13.3926C31.0918 13.0996 30.8574 12.8418 30.5645 12.6191C30.3301 12.4434 30.0254 12.3203 29.6504 12.25C29.2754 12.168 28.9355 12.1152 28.6309 12.0918V10.8086L37.1562 10.3516L37.3496 10.6152V22.3047C37.3496 23.5117 37.5781 24.4023 38.0352 24.9766C38.5039 25.5508 39.1426 25.8379 39.9512 25.8379C40.7832 25.8379 41.5273 25.6211 42.1836 25.1875C42.8516 24.7539 43.3379 24.291 43.6426 23.7988V14.3242C43.6426 13.9258 43.5664 13.5684 43.4141 13.252C43.2617 12.9355 43.0391 12.6777 42.7461 12.4785C42.5352 12.3379 42.2305 12.2441 41.832 12.1973C41.4453 12.1504 41.0469 12.1152 40.6367 12.0918V10.8086L49.1621 10.3516L49.4258 10.6152V24.1855C49.4258 24.5957 49.5078 24.9473 49.6719 25.2402C49.8359 25.5215 50.0762 25.7617 50.3926 25.9609C50.6152 26.1016 50.9023 26.2012 51.2539 26.2598C51.6172 26.3066 51.9746 26.3359 52.3262 26.3477V27.6309ZM86.5508 20.002L86.0586 28H63.084V26.6289C63.4941 26.5938 63.9746 26.541 64.5254 26.4707C65.0762 26.3887 65.4395 26.3125 65.6152 26.2422C66.0371 26.0781 66.3301 25.8496 66.4941 25.5566C66.6582 25.2637 66.7402 24.8887 66.7402 24.4316V6.83594C66.7402 6.41406 66.6758 6.06836 66.5469 5.79883C66.418 5.51758 66.1074 5.26563 65.6152 5.04297C65.252 4.87891 64.8125 4.75 64.2969 4.65625C63.793 4.55078 63.3887 4.47461 63.084 4.42773V3.05664H76.7773V4.42773C76.4023 4.46289 75.957 4.51562 75.4414 4.58594C74.9375 4.64453 74.498 4.73242 74.123 4.84961C73.666 5.00195 73.3613 5.24219 73.209 5.57031C73.0566 5.88672 72.9805 6.25 72.9805 6.66016V23.0605C72.9805 23.834 73.0332 24.4434 73.1387 24.8887C73.2441 25.334 73.4492 25.6621 73.7539 25.873C74.0586 26.0957 74.4805 26.2422 75.0195 26.3125C75.5703 26.3711 76.3262 26.4004 77.2871 26.4004C78.2246 26.4004 79.1328 26.3477 80.0117 26.2422C80.9023 26.125 81.541 25.8789 81.9277 25.5039C82.5254 24.9062 83.1348 24.0684 83.7559 22.9902C84.3887 21.9004 84.8926 20.9043 85.2676 20.002H86.5508ZM107.662 27.6309C107.146 27.8535 106.537 28.0586 105.834 28.2461C105.131 28.4336 104.387 28.5273 103.602 28.5273C102.16 28.5273 101.1 28.3164 100.42 27.8945C99.7402 27.4609 99.2773 26.8457 99.0312 26.0488H98.9258C98.5273 26.4473 98.1406 26.7871 97.7656 27.0684C97.4023 27.3496 97.0098 27.5898 96.5879 27.7891C96.0371 28.0469 95.5039 28.2344 94.9883 28.3516C94.4844 28.4805 93.7754 28.5449 92.8613 28.5449C91.502 28.5449 90.3418 28.1465 89.3809 27.3496C88.4199 26.541 87.9395 25.4746 87.9395 24.1504C87.9395 23.3887 88.0449 22.7441 88.2559 22.2168C88.4668 21.6777 88.7656 21.2031 89.1523 20.793C89.5039 20.418 89.9082 20.1074 90.3652 19.8613C90.834 19.6152 91.3438 19.3867 91.8945 19.1758C92.9492 18.7891 94.2148 18.3906 95.6914 17.9805C97.168 17.5586 98.2461 17.1836 98.9258 16.8555V15.168C98.9258 14.875 98.9023 14.4883 98.8555 14.0078C98.8086 13.5273 98.709 13.123 98.5566 12.7949C98.3926 12.4199 98.1348 12.1035 97.7832 11.8457C97.4316 11.5879 96.9688 11.459 96.3945 11.459C95.8789 11.459 95.4453 11.5352 95.0938 11.6875C94.7539 11.8281 94.4785 11.9746 94.2676 12.127C94.3027 12.3613 94.4023 12.7188 94.5664 13.1992C94.7305 13.6797 94.8125 14.1426 94.8125 14.5879C94.8125 14.7871 94.7598 15.0391 94.6543 15.3438C94.5488 15.6367 94.3965 15.8711 94.1973 16.0469C93.9277 16.2812 93.623 16.4629 93.2832 16.5918C92.9551 16.7207 92.4453 16.7852 91.7539 16.7852C90.7695 16.7852 90.0254 16.5508 89.5215 16.082C89.0176 15.6016 88.7656 14.9805 88.7656 14.2188C88.7656 13.5625 89.0234 12.9766 89.5391 12.4609C90.0664 11.9336 90.7051 11.5 91.4551 11.1602C92.1934 10.8086 93.043 10.5391 94.0039 10.3516C94.9648 10.1523 95.8555 10.0527 96.6758 10.0527C97.8125 10.0527 98.8555 10.123 99.8047 10.2637C100.754 10.3926 101.609 10.668 102.371 11.0898C103.098 11.5 103.672 12.0977 104.094 12.8828C104.527 13.6562 104.744 14.6699 104.744 15.9238C104.744 17.248 104.715 18.8184 104.656 20.6348C104.609 22.4512 104.586 23.6465 104.586 24.2207C104.586 24.748 104.662 25.1641 104.814 25.4688C104.979 25.7734 105.225 26.002 105.553 26.1543C105.752 26.248 106.062 26.3066 106.484 26.3301C106.918 26.3418 107.311 26.3477 107.662 26.3477V27.6309ZM98.9258 18.4727C98.2695 18.6953 97.6191 18.9531 96.9746 19.2461C96.3301 19.5273 95.8027 19.8262 95.3926 20.1426C94.959 20.4707 94.6191 20.8926 94.373 21.4082C94.127 21.9121 94.0039 22.5098 94.0039 23.2012C94.0039 24.1152 94.209 24.7773 94.6191 25.1875C95.041 25.5977 95.5566 25.8027 96.166 25.8027C96.8105 25.8027 97.3379 25.6738 97.748 25.416C98.1699 25.1465 98.5391 24.8184 98.8555 24.4316L98.9258 18.4727ZM129.986 19.4043C129.986 22.041 129.113 24.2266 127.367 25.9609C125.633 27.6953 123.43 28.5625 120.758 28.5625C119.727 28.5625 118.836 28.4863 118.086 28.334C117.348 28.1934 116.721 28.0176 116.205 27.8066C115.666 27.584 115.232 27.3672 114.904 27.1562C114.588 26.9336 114.336 26.752 114.148 26.6113L111.635 28.8965L110.598 28.4922C110.656 27.6367 110.703 26.7109 110.738 25.7148C110.785 24.707 110.809 23.3535 110.809 21.6543V5.20117C110.809 4.75586 110.715 4.3457 110.527 3.9707C110.352 3.58398 110.111 3.29102 109.807 3.0918C109.584 2.95117 109.256 2.82812 108.822 2.72266C108.4 2.61719 108.008 2.55273 107.645 2.5293V1.24609L116.328 0.789062L116.592 1.07031V12.4961H116.697C117.553 11.6641 118.432 11.0547 119.334 10.668C120.236 10.2812 121.139 10.0879 122.041 10.0879C124.502 10.0879 126.441 10.9258 127.859 12.6016C129.277 14.2773 129.986 16.5449 129.986 19.4043ZM123.676 19.6152C123.676 18.7246 123.605 17.8691 123.465 17.0488C123.336 16.2168 123.113 15.4844 122.797 14.8516C122.48 14.2188 122.064 13.7148 121.549 13.3398C121.033 12.9531 120.395 12.7598 119.633 12.7598C118.918 12.7598 118.326 12.877 117.857 13.1113C117.389 13.3457 116.967 13.6914 116.592 14.1484V24.3789C116.662 24.6133 116.791 24.9238 116.979 25.3105C117.178 25.6855 117.377 25.9785 117.576 26.1895C117.857 26.4941 118.156 26.7285 118.473 26.8926C118.789 27.0449 119.234 27.1211 119.809 27.1211C121.004 27.1211 121.947 26.4707 122.639 25.1699C123.33 23.8574 123.676 22.0059 123.676 19.6152Z" fill="#166FD1"/>
</svg>
